<svg width="80" height="80" viewBox="0 0 80 80" fill="none" xmlns="http://www.w3.org/2000/svg">
<g clip-path="url(#clip0_80_99)">
<path d="M56.5302 70.573C56.7938 71.0583 56.6147 71.6668 56.1223 71.9169C48.7282 75.6726 40.2528 76.7647 32.131 74.9891C23.6831 73.1422 16.1822 68.3161 11.0001 61.3934C5.81794 54.4708 3.30078 45.914 3.90893 37.288C4.51707 28.662 8.20987 20.543 14.312 14.4159C20.4142 8.28877 28.518 4.56286 37.1415 3.91951C45.765 3.27616 54.3319 5.75836 61.2757 10.9122C68.2195 16.0661 73.0761 23.5472 74.9575 31.9875C76.7662 40.102 75.7087 48.5817 71.9833 55.9911C71.7352 56.4845 71.1274 56.6661 70.641 56.4044L67.3299 54.6228C66.8436 54.3611 66.6631 53.7552 66.9086 53.2605C69.98 47.0707 70.8431 40.0046 69.3354 33.2406C67.7551 26.1508 63.6755 19.8666 57.8427 15.5374C52.01 11.2082 44.8137 9.12313 37.57 9.66354C30.3263 10.204 23.5191 13.3337 18.3933 18.4805C13.2675 23.6273 10.1655 30.4472 9.65467 37.6931C9.14383 44.9389 11.2582 52.1266 15.6112 57.9417C19.9643 63.7567 26.265 67.8106 33.3612 69.362C40.1313 70.8421 47.1938 69.9501 53.371 66.8535C53.8647 66.606 54.4713 66.784 54.735 67.2692L56.5302 70.573Z" fill="#F5F5F5"/>
<path d="M66.5605 55.3648C66.1785 53.5367 67.5738 51.8197 69.4414 51.8197V51.8197C70.8287 51.8197 72.0277 52.7886 72.3189 54.1451L76.0509 71.5303C76.3962 73.1389 75.3777 74.7245 73.7711 75.0794V75.0794C72.1447 75.4387 70.538 74.4005 70.1974 72.7701L66.5605 55.3648Z" fill="#F5F5F5"/>
<path d="M70.573 56.5301C71.0583 56.7938 71.6668 56.6147 71.9169 56.1223C75.6726 48.7282 76.7647 40.2528 74.9891 32.131C73.1422 23.6831 68.3161 16.1822 61.3935 11.0001C54.4708 5.81793 45.914 3.30077 37.288 3.90892C28.662 4.51706 20.5431 8.20986 14.4159 14.312C8.28878 20.4142 4.56287 28.518 3.91952 37.1415C3.27617 45.7649 5.75838 54.3319 10.9122 61.2757C16.0661 68.2194 23.5472 73.0761 31.9875 74.9574C40.102 76.7662 48.5817 75.7087 55.9911 71.9833C56.4845 71.7352 56.6661 71.1274 56.4044 70.641L54.6228 67.3299C54.3611 66.8436 53.7552 66.6631 53.2605 66.9086C47.0707 69.98 40.0046 70.8431 33.2406 69.3354C26.1508 67.7551 19.8667 63.6755 15.5374 57.8427C11.2082 52.0099 9.12315 44.8137 9.66356 37.57C10.204 30.3263 13.3337 23.5191 18.4805 18.3933C23.6273 13.2674 30.4472 10.1655 37.6931 9.65465C44.939 9.14381 52.1266 11.2582 57.9417 15.6112C63.7567 19.9642 67.8106 26.265 69.362 33.3612C70.8421 40.1313 69.9501 47.1938 66.8535 53.371C66.606 53.8647 66.784 54.4713 67.2692 54.735L70.573 56.5301Z" fill="#F5F5F5"/>
<path d="M55.3648 66.5604C53.5367 66.1785 51.8197 67.5738 51.8197 69.4413V69.4413C51.8197 70.8287 52.7886 72.0277 54.1451 72.3189L71.5303 76.0508C73.1389 76.3962 74.7245 75.3777 75.0794 73.7711V73.7711C75.4387 72.1447 74.4005 70.538 72.7701 70.1973L55.3648 66.5604Z" fill="#F5F5F5"/>
</g>
<defs>
<clipPath id="clip0_80_99">
<rect width="80" height="80" fill="white"/>
</clipPath>
</defs>
</svg>
