<svg width="80" height="80" viewBox="0 0 80 80" fill="none" xmlns="http://www.w3.org/2000/svg">
<path d="M52.8436 28.8855L28.8852 52.8439" stroke="#46B2FF" stroke-width="6" stroke-linecap="round"/>
<path fill-rule="evenodd" clip-rule="evenodd" d="M62.397 19.9706L60.9828 18.5564C57.0775 14.6512 50.7459 14.6512 46.8406 18.5564L34.9445 30.4525L30.7019 26.2099L42.598 14.3138C48.8464 8.06538 58.977 8.06538 65.2254 14.3138L66.6396 15.728C72.888 21.9764 72.888 32.107 66.6396 38.3554L38.3553 66.6397C32.1069 72.8881 21.9763 72.8881 15.7279 66.6397L14.3137 65.2254C8.06532 58.9771 8.06532 48.8464 14.3137 42.598L26.2097 30.7021L30.4523 34.9447L18.5563 46.8407C14.6511 50.7459 14.6511 57.0776 18.5563 60.9828L19.9706 62.397C23.8758 66.3023 30.2075 66.3023 34.1127 62.397L46.0088 50.501L50.2512 54.7434L54.7434 50.2512L50.501 46.0088L62.397 34.1128C66.3022 30.2075 66.3022 23.8759 62.397 19.9706ZM50.501 46.0088L50.5008 46.0086L46.0086 50.5008L46.0088 50.501L50.501 46.0088Z" fill="#46B2FF"/>
</svg>
