<svg width="80" height="80" viewBox="0 0 80 80" fill="none" xmlns="http://www.w3.org/2000/svg">
<path d="M52.8436 28.9738L28.8852 52.9322" stroke="#F5F5F5" stroke-width="6" stroke-linecap="round"/>
<path fill-rule="evenodd" clip-rule="evenodd" d="M62.397 20.0589L60.9828 18.6447C57.0775 14.7394 50.7459 14.7394 46.8406 18.6447L34.9445 30.5408L30.7019 26.2981L42.598 14.402C48.8464 8.15363 58.977 8.15363 65.2254 14.402L66.6396 15.8162C72.888 22.0646 72.888 32.1953 66.6396 38.4437L38.3553 66.7279C32.1069 72.9763 21.9763 72.9763 15.7279 66.7279L14.3137 65.3137C8.06532 59.0653 8.06532 48.9347 14.3137 42.6863L26.2097 30.7903L30.4523 35.033L18.5563 46.9289C14.6511 50.8342 14.6511 57.1658 18.5563 61.0711L19.9706 62.4853C23.8758 66.3905 30.2075 66.3905 34.1127 62.4853L46.0088 50.5892L50.2512 54.8317L54.7434 50.3395L50.501 46.097L62.397 34.201C66.3022 30.2958 66.3022 23.9641 62.397 20.0589ZM50.501 46.097L50.5008 46.0969L46.0086 50.5891L46.0088 50.5892L50.501 46.097Z" fill="#F5F5F5"/>
</svg>
