<svg width="80" height="80" viewBox="0 0 80 80" fill="none" xmlns="http://www.w3.org/2000/svg">
<path d="M62.5 62.5C62.3155 62.3155 62.4462 62 62.7071 62H73C73.5523 62 74 62.4477 74 63V71.5858C74 72.4767 72.9229 72.9229 72.2929 72.2929L62.5 62.5V62.5Z" fill="#F5F5F5"/>
<path d="M34 59C34 57.8954 34.8954 57 36 57H72C73.1046 57 74 57.8954 74 59V63H36C34.8954 63 34 62.1046 34 61V59Z" fill="#F5F5F5"/>
<path d="M72 23C73.1046 23 74 23.8954 74 25L74 63L70 63C68.8954 63 68 62.1046 68 61L68 25C68 23.8954 68.8954 23 70 23L72 23Z" fill="#F5F5F5"/>
<mask id="path-4-inside-1_74_80" fill="white">
<path d="M6 12C6 9.79087 7.79086 8 10 8H60C62.2092 8 64 9.79086 64 12V47.32C64 49.5291 62.2092 51.32 60 51.32H6V12Z"/>
</mask>
<path d="M6 12C6 9.79087 7.79086 8 10 8H60C62.2092 8 64 9.79086 64 12V47.32C64 49.5291 62.2092 51.32 60 51.32H6V12Z" stroke="#F5F5F5" stroke-width="12" mask="url(#path-4-inside-1_74_80)"/>
<path d="M9 54.0774V52.3201H10.7574L9 54.0774Z" stroke="#F5F5F5" stroke-width="6"/>
</svg>
