<svg width="80" height="80" viewBox="0 0 80 80" fill="none" xmlns="http://www.w3.org/2000/svg">
<path fill-rule="evenodd" clip-rule="evenodd" d="M47.0001 8.57895V9.61536C57.9094 11.9313 66.0001 20.7136 66.0001 34.7606C66.0001 35.5072 65.9789 36.2542 65.9372 37H66.0001V56L71.2501 61.1429L75.0001 64.5714V68H66.0001H41.8334H16.0001H6.00006V64.5714L10.1667 61.1429L16.0001 56V37H16.0728C16.0246 36.2542 16.0001 35.5072 16.0001 34.7606C16.0001 21.1463 23.6 12.4774 34.0001 9.84776V8.57895V8H34.0154C34.2466 3.68644 37.0616 1 40.5001 1C43.9386 1 46.7535 3.68644 46.9847 8H47.0001V8.57895ZM48.0001 71C48.0001 72.0506 47.7931 73.0909 47.3911 74.0615C46.9891 75.0321 46.3998 75.914 45.6569 76.6569C44.914 77.3997 44.0321 77.989 43.0615 78.391C42.0909 78.7931 41.0506 79 40.0001 79C38.9495 79 37.9092 78.7931 36.9386 78.391C35.968 77.989 35.0861 77.3997 34.3432 76.6569C33.6003 75.914 33.0111 75.0321 32.609 74.0615C32.207 73.0909 32.0001 72.0506 32.0001 71H40.0001H48.0001ZM61.0001 35.5V57L69.0001 64H21.0001H13.0001L21.0001 57V35.5V34H21.0438C21.6412 23.7888 28.2938 15.4383 37.0001 13.4501V9C37.0001 6.79086 38.5671 5 40.5001 5C42.4331 5 44.0001 6.79086 44.0001 9V13.2514C53.1926 14.8071 60.3362 23.4012 60.9563 34H61.0001V35.5Z" fill="#F5F5F5"/>
</svg>
