<svg width="80" height="80" viewBox="0 0 80 80" fill="none" xmlns="http://www.w3.org/2000/svg">
<path d="M56 13.8516L72 13.8516V65.9007H44.6903" stroke="#46B2FF" stroke-width="6" stroke-linecap="round" stroke-linejoin="round"/>
<path d="M42.7909 55.0145C43.4209 54.3845 44.498 54.8307 44.498 55.7216V76.3381C44.498 77.229 43.4209 77.6752 42.7909 77.0452L32.4827 66.737C32.0922 66.3464 32.0922 65.7133 32.4827 65.3227L42.7909 55.0145Z" fill="#46B2FF"/>
<path d="M24 65.9009H8L8 13.8517H35.3097" stroke="#46B2FF" stroke-width="6" stroke-linecap="round" stroke-linejoin="round"/>
<path d="M37.2091 24.738C36.5791 25.3679 35.502 24.9218 35.502 24.0309V3.41432C35.502 2.52342 36.5791 2.07725 37.2091 2.70722L47.5173 13.0155C47.9078 13.406 47.9078 14.0392 47.5173 14.4297L37.2091 24.738Z" fill="#46B2FF"/>
</svg>
