<svg width="80" height="80" viewBox="0 0 80 80" fill="none" xmlns="http://www.w3.org/2000/svg">
<path fill-rule="evenodd" clip-rule="evenodd" d="M33 4C31.8954 4 31 4.89543 31 6V11.3734C29.3046 11.9059 27.6741 12.5848 26.1233 13.3954L22.1422 9.41421C21.3611 8.63316 20.0948 8.63316 19.3137 9.41421L9.41425 19.3137C8.6332 20.0948 8.6332 21.3611 9.41425 22.1421L13.3954 26.1233C12.5848 27.6741 11.9059 29.3046 11.3734 31H6C4.89543 31 4 31.8954 4 33V47C4 48.1046 4.89543 49 6 49H11.3734C11.8788 50.609 12.5161 52.1596 13.2726 53.6392L9.41427 57.4975C8.63322 58.2785 8.63322 59.5449 9.41427 60.3259L19.3138 70.2254C20.0948 71.0064 21.3611 71.0064 22.1422 70.2254L25.8875 66.4801C27.5086 67.3458 29.2185 68.0671 31 68.6266V74C31 75.1046 31.8954 76 33 76H47C48.1046 76 49 75.1046 49 74V68.6266C50.6954 68.0941 52.3259 67.4152 53.8767 66.6046L57.4975 70.2254C58.2786 71.0064 59.5449 71.0064 60.3259 70.2254L70.2254 60.3259C71.0065 59.5448 71.0065 58.2785 70.2254 57.4975L66.6046 53.8767C67.4152 52.3259 68.0941 50.6954 68.6266 49H74C75.1046 49 76 48.1046 76 47V33C76 31.8954 75.1046 31 74 31H68.6266C68.0671 29.2185 67.3458 27.5086 66.4801 25.8875L70.2254 22.1421C71.0065 21.3611 71.0065 20.0948 70.2254 19.3137L60.326 9.41421C59.5449 8.63316 58.2786 8.63317 57.4975 9.41421L53.6392 13.2726C52.1596 12.5161 50.609 11.8788 49 11.3734V6C49 4.89543 48.1046 4 47 4H33ZM40 63C52.7025 63 63 52.7025 63 40C63 27.2975 52.7025 17 40 17C27.2975 17 17 27.2975 17 40C17 52.7025 27.2975 63 40 63Z" fill="#F5F5F5"/>
</svg>
