<svg width="80" height="80" viewBox="0 0 80 80" fill="none" xmlns="http://www.w3.org/2000/svg">
<path d="M29.875 26L13 26L13 72H67V26H50.125" stroke="#F5F5F5" stroke-width="6" stroke-linejoin="round"/>
<rect x="37.4142" y="12" width="6" height="38" fill="#F5F5F5"/>
<path d="M42.2223 6.9798C41.246 6.00349 39.6631 6.00349 38.6868 6.9798V6.9798C37.7105 7.95611 37.7105 9.53903 38.6868 10.5153L46.465 18.2935C47.4413 19.2698 49.0242 19.2698 50.0005 18.2935V18.2935C50.9768 17.3172 50.9768 15.7343 50.0005 14.758L42.2223 6.9798Z" fill="#F5F5F5"/>
<path d="M38.5459 6.76777C39.5222 5.79146 41.1052 5.79146 42.0815 6.76777V6.76777C43.0578 7.74408 43.0578 9.32699 42.0815 10.3033L34.3033 18.0815C33.327 19.0578 31.7441 19.0578 30.7678 18.0815V18.0815C29.7915 17.1052 29.7915 15.5223 30.7678 14.5459L38.5459 6.76777Z" fill="#F5F5F5"/>
</svg>
