<svg width="80" height="80" viewBox="0 0 80 80" fill="none" xmlns="http://www.w3.org/2000/svg">
<path fill-rule="evenodd" clip-rule="evenodd" d="M51.9673 75.4817C51.3849 75.8116 50.7119 75.9999 49.9955 75.9999L29 75.9999C26.7909 75.9999 24.9886 74.206 25.1489 72.0026C25.4224 68.2443 26.0313 64.7516 26.626 61.3403C27.3778 57.0281 28.1069 52.8461 28.1069 48.4227L28.1069 40.9995C28.107 38.7904 29.9 36.9758 32.103 37.1408C38.3357 37.6075 45.4972 39.4305 49.465 45.4078C49.5439 45.5266 49.6214 45.6469 49.6975 45.7686C45.062 48.8049 41.9999 54.0448 41.9999 60C41.9999 66.8807 46.0877 72.8066 51.9673 75.4817Z" fill="#F5F5F5"/>
<path d="M9.00451 76C6.79537 76 4.999 74.2092 5.00006 72.0001C5.00462 62.4989 5.28919 51.804 9.535 45.4079C13.5027 39.4306 20.6642 37.6076 26.897 37.1409C29.1 36.976 30.893 38.7905 30.893 40.9996C30.8931 42.542 30.8931 44.3073 30.8931 48.4228C30.8931 56.3454 33.2319 63.4935 33.8511 72.0027C34.0114 74.2061 32.2091 76 30 76L9.00451 76Z" fill="#F5F5F5"/>
<ellipse cx="29.5" cy="21" rx="18.5" ry="18" fill="#F5F5F5"/>
<rect x="56" y="48" width="6" height="24" rx="3" fill="#F5F5F5"/>
<rect x="71" y="57" width="6" height="24" rx="3" transform="rotate(90 71 57)" fill="#F5F5F5"/>
</svg>
